# xmcd
#
# Track frame offsets:
#	150
#	14985
#	26750
#	39658
#	53190
#	66493
#	79200
#	92748
#	105093
#	117718
#	129015
#	141943
#	155230
#	167953
#	179828
#	192778
#	205828
#	218498
#	230653
#	242410
#	253718
#	266368
#	278333
#	289893
#	303018
#
# Disc length: 4176 seconds
#
# Revision: 1
# Processed by: cddbd v1.5.1PL0 Copyright (c) Steve Scherf et al.
# Submitted via: EasyCDDAExtractor 6.5.0.1
#
DISCID=6f104e19
DTITLE=Gene Autry - Last Round-Up - 25 Cowboy Classics
DYEAR=1940
DGENRE=Western
TTITLE0=Last Roundup
TTITLE1=Someday in Wyoming
TTITLE2=Dear Old Western Skies
TTITLE3=Old Covered Wagon
TTITLE4=Texas Plains
TTITLE5=Mother, Here's a Bouquet for You
TTITLE6=Guns and Guitars
TTITLE7=When the Golden Leaves Are Falling
TTITLE8=Down in the Land of Zulu
TTITLE9=It's Round-Up Time in Reno
TTITLE10=I Want a Pardon for Daddy
TTITLE11=If Today Were the End of the World
TTITLE12=When I First Laid Eyes on You
TTITLE13=If It Wasn't for the Rain
TTITLE14=Little Old Band of Gold
TTITLE15=Mary Dear
TTITLE16=Sycamore Lane
TTITLE17=Cowboy's Trademarks
TTITLE18=Last Letter
TTITLE19=I Wish All My Children Were Babies Again
TTITLE20=Take Me Back into Your Heart
TTITLE21=Ages and Ages Ago
TTITLE22=Last Smile
TTITLE23=Pretty Mary
TTITLE24=Little Big Dry
EXTD=
EXTT0=
EXTT1=
EXTT2=
EXTT3=
EXTT4=
EXTT5=
EXTT6=
EXTT7=
EXTT8=
EXTT9=
EXTT10=
EXTT11=
EXTT12=
EXTT13=
EXTT14=
EXTT15=
EXTT16=
EXTT17=
EXTT18=
EXTT19=
EXTT20=
EXTT21=
EXTT22=
EXTT23=
EXTT24=
PLAYORDER=
